<svg width="88" height="88" viewBox="0 0 88 88" fill="none" xmlns="http://www.w3.org/2000/svg">
<path d="M44 88C36.5333 88 29.6667 86.3 23.4 82.9C17.1333 79.5 12 74.9667 8 69.3V80H0V56H24V64H14.1C17.3 68.8 21.5167 72.6667 26.75 75.6C31.9833 78.5333 37.7333 80 44 80C49 80 53.6833 79.05 58.05 77.15C62.4167 75.25 66.2167 72.6833 69.45 69.45C72.6833 66.2167 75.25 62.4167 77.15 58.05C79.05 53.6833 80 49 80 44H88C88 50.0667 86.85 55.7667 84.55 61.1C82.25 66.4333 79.1 71.1 75.1 75.1C71.1 79.1 66.4333 82.25 61.1 84.55C55.7667 86.85 50.0667 88 44 88ZM40.4 72V66.8C37.2667 66.0667 34.7167 64.7167 32.75 62.75C30.7833 60.7833 29.3333 58.2 28.4 55L35 52.4C35.8 55.1333 37.05 57.1833 38.75 58.55C40.45 59.9167 42.4 60.6 44.6 60.6C46.8 60.6 48.6833 60.0833 50.25 59.05C51.8167 58.0167 52.6 56.4 52.6 54.2C52.6 52.2667 51.7833 50.7 50.15 49.5C48.5167 48.3 45.6 46.9333 41.4 45.4C37.4667 44 34.5833 42.3333 32.75 40.4C30.9167 38.4667 30 35.9333 30 32.8C30 30.0667 30.95 27.5833 32.85 25.35C34.75 23.1167 37.3333 21.6667 40.6 21V16H47.6V21C50 21.2 52.1833 22.1667 54.15 23.9C56.1167 25.6333 57.4667 27.6667 58.2 30L51.8 32.6C51.2667 31.0667 50.4 29.7833 49.2 28.75C48 27.7167 46.3333 27.2 44.2 27.2C41.8667 27.2 40.0833 27.7 38.85 28.7C37.6167 29.7 37 31.0667 37 32.8C37 34.5333 37.7667 35.9 39.3 36.9C40.8333 37.9 43.6 39.0667 47.6 40.4C52.4 42.1333 55.6 44.1667 57.2 46.5C58.8 48.8333 59.6 51.4 59.6 54.2C59.6 56.1333 59.2667 57.8333 58.6 59.3C57.9333 60.7667 57.05 62.0167 55.95 63.05C54.85 64.0833 53.5667 64.9167 52.1 65.55C50.6333 66.1833 49.0667 66.6667 47.4 67V72H40.4ZM0 44C0 37.9333 1.15 32.2333 3.45 26.9C5.75 21.5667 8.9 16.9 12.9 12.9C16.9 8.9 21.5667 5.75 26.9 3.45C32.2333 1.15 37.9333 0 44 0C51.4667 0 58.3333 1.7 64.6 5.1C70.8667 8.5 76 13.0333 80 18.7V8H88V32H64V24H73.9C70.7 19.2 66.4833 15.3333 61.25 12.4C56.0167 9.46667 50.2667 8 44 8C39 8 34.3167 8.95 29.95 10.85C25.5833 12.75 21.7833 15.3167 18.55 18.55C15.3167 21.7833 12.75 25.5833 10.85 29.95C8.95 34.3167 8 39 8 44H0Z" fill="white"/>
</svg>
