<svg width="85" height="69" viewBox="0 0 85 69" fill="none" xmlns="http://www.w3.org/2000/svg">
<path d="M17.25 68.1667C12.6208 68.1667 8.65798 66.5184 5.36145 63.2219C2.06492 59.9254 0.416656 55.9625 0.416656 51.3333V17.6667C0.416656 13.0375 2.06492 9.07466 5.36145 5.77814C8.65798 2.48161 12.6208 0.833344 17.25 0.833344H67.75C72.3792 0.833344 76.342 2.48161 79.6385 5.77814C82.9351 9.07466 84.5833 13.0375 84.5833 17.6667V51.3333C84.5833 55.9625 82.9351 59.9254 79.6385 63.2219C76.342 66.5184 72.3792 68.1667 67.75 68.1667H17.25ZM17.25 17.6667H67.75C69.293 17.6667 70.766 17.842 72.1687 18.1927C73.5715 18.5434 74.9042 19.1045 76.1667 19.8761V17.6667C76.1667 15.3521 75.3425 13.3707 73.6943 11.7224C72.046 10.0741 70.0646 9.25001 67.75 9.25001H17.25C14.9354 9.25001 12.954 10.0741 11.3057 11.7224C9.65745 13.3707 8.83332 15.3521 8.83332 17.6667V19.8761C10.0958 19.1045 11.4285 18.5434 12.8312 18.1927C14.234 17.842 15.7069 17.6667 17.25 17.6667ZM9.46457 31.3438L56.2823 42.7063C56.9135 42.8465 57.5448 42.8465 58.176 42.7063C58.8073 42.566 59.4035 42.2854 59.9646 41.8646L74.5885 29.6604C73.817 28.6083 72.8351 27.7491 71.6427 27.0828C70.4503 26.4165 69.1528 26.0833 67.75 26.0833H17.25C15.4264 26.0833 13.8307 26.5568 12.463 27.5037C11.0953 28.4505 10.0958 29.7306 9.46457 31.3438Z" fill="white"/>
</svg>
