<svg width="258" height="57" viewBox="0 0 258 57" fill="none" xmlns="http://www.w3.org/2000/svg">
<path d="M90.5912 34.8V25.2L92.7912 23H98.7912L100.911 25.12V26.4H99.3912V25.62L98.1112 24.36H93.4712L92.1112 25.7V34.3L93.4712 35.64H98.1112L99.3912 34.38V33.6H100.911V34.88L98.7912 37H92.7912L90.5912 34.8ZM107.091 23H108.731L113.711 37H112.131L110.831 33.22H104.991L103.691 37H102.111L107.091 23ZM110.391 31.9L107.931 24.76H107.891L105.451 31.9H110.391ZM112.914 23H114.494L118.654 35.18H118.694L122.854 23H124.434L119.494 37H117.854L112.914 23ZM126.533 23H135.573V24.36H128.053V29.28H134.993V30.64H128.053V35.64H135.573V37H126.533V23ZM138.174 23H146.034L147.874 24.84V28.72L146.914 29.68L148.494 31.26V35.04L146.534 37H138.174V23ZM145.394 29.32L146.394 28.32V25.3L145.394 24.32H139.654V29.32H145.394ZM145.854 35.68L147.014 34.54V31.74L145.854 30.6H139.654V35.68H145.854ZM151.104 23H152.624V35.66H159.744V37H151.104V23ZM161.353 34.8V25.2L163.553 23H169.873L172.073 25.2V34.8L169.873 37H163.553L161.353 34.8ZM169.193 35.64L170.553 34.3V25.7L169.193 24.36H164.233L162.873 25.7V34.3L164.233 35.64H169.193ZM174.869 34.8V25.2L177.069 23H183.069L185.189 25.12V26.4H183.669V25.62L182.389 24.36H177.749L176.389 25.7V34.3L177.749 35.64H182.389L183.669 34.38V33.6H185.189V34.88L183.069 37H177.069L174.869 34.8ZM187.686 23H189.206V29.34H192.466L196.086 23H197.726L193.746 29.98L198.026 37H196.346L192.486 30.7H189.206V37H187.686V23Z" fill="white"/>
<rect x="43.5374" y="12.7071" width="23.8553" height="23.8016" rx="3.5" transform="rotate(45 43.5374 12.7071)" fill="#121212" stroke="white"/>
<path d="M41.1601 18.0831C43.4474 15.9863 46.9582 15.9863 49.2455 18.0831V18.0831L52.9513 22.1258L50.2617 23.1805C44.6419 25.3844 44.26 33.192 49.638 35.9337L52.9513 37.6228L50.0983 40.3518C47.369 42.9624 43.0609 42.9372 40.3624 40.2948L34.3111 34.3696C31.4428 31.5611 31.5192 26.9206 34.4784 24.208L41.1601 18.0831Z" fill="white"/>
<rect x="43.4993" y="20.1377" width="13.2663" height="13.2663" rx="2.5" transform="rotate(45 43.4993 20.1377)" fill="#121212" stroke="white"/>
</svg>
